{
  "accessors": [
    {
      "bufferView": 2,
      "componentType": 5126,
      "count": 15596,
      "max": [
        7.62939453125e-06,
        0.04000091552734375,
        5.0
      ],
      "min": [
        -16.0,
        -46.22999954223633,
        -0.02393341064453125
      ],
      "type": "VEC3"
    },
    {
      "bufferView": 2,
      "byteOffset": 187152,
      "componentType": 5126,
      "count": 15596,
      "max": [
        1.0,
        1.0,
        1.0
      ],
      "min": [
        -1.0,
        -1.0,
        -1.0
      ],
      "type": "VEC3"
    },
    {
      "bufferView": 3,
      "componentType": 5126,
      "count": 15596,
      "max": [
        1.0,
        1.0,
        1.0,
        1.0
      ],
      "min": [
        -1.0,
        -1.0,
        -1.0,
        -1.0
      ],
      "type": "VEC4"
    },
    {
      "bufferView": 1,
      "componentType": 5126,
      "count": 15596,
      "max": [
        7.950870037078857,
        6.08713960647583
      ],
      "min": [
        -6.950870037078857,
        -5.08713960647583
      ],
      "type": "VEC2"
    },
    {
      "bufferView": 0,
      "componentType": 5125,
      "count": 31848,
      "type": "SCALAR"
    },
    {
      "bufferView": 2,
      "byteOffset": 374304,
      "componentType": 5126,
      "count": 976,
      "max": [
        -0.07776355743408203,
        -0.41053009033203125,
        4.357706546783447
      ],
      "min": [
        -15.922229766845703,
        -45.589473724365234,
        2.510528564453125
      ],
      "type": "VEC3"
    },
    {
      "bufferView": 2,
      "byteOffset": 386016,
      "componentType": 5126,
      "count": 976,
      "max": [
        1.0,
        1.1558555570445606e-06,
        0.0
      ],
      "min": [
        -1.0,
        -1.1558569212866132e-06,
        -1.0
      ],
      "type": "VEC3"
    },
    {
      "bufferView": 1,
      "byteOffset": 124768,
      "componentType": 5126,
      "count": 976,
      "max": [
        0.707351565361023,
        0.7852067351341248
      ],
      "min": [
        0.1939450204372406,
        0.15299783647060394
      ],
      "type": "VEC2"
    },
    {
      "bufferView": 0,
      "byteOffset": 127392,
      "componentType": 5125,
      "count": 1464,
      "type": "SCALAR"
    },
    {
      "bufferView": 2,
      "byteOffset": 397728,
      "componentType": 5126,
      "count": 4,
      "max": [
        6.67572021484375e-06,
        0.0,
        0.0
      ],
      "min": [
        -16.0,
        -46.150001525878906,
        0.0
      ],
      "type": "VEC3"
    },
    {
      "bufferView": 2,
      "byteOffset": 397776,
      "componentType": 5126,
      "count": 4,
      "max": [
        0.0,
        0.0,
        1.0
      ],
      "min": [
        0.0,
        0.0,
        1.0
      ],
      "type": "VEC3"
    },
    {
      "bufferView": 3,
      "byteOffset": 249536,
      "componentType": 5126,
      "count": 4,
      "max": [
        1.0,
        2.384185791015625e-07,
        0.0,
        1.0
      ],
      "min": [
        1.0,
        0.0,
        0.0,
        1.0
      ],
      "type": "VEC4"
    },
    {
      "bufferView": 1,
      "byteOffset": 132576,
      "componentType": 5126,
      "count": 4,
      "max": [
        1.264374017715454,
        2.3781261444091797
      ],
      "min": [
        -0.2643737196922302,
        -2.0313539505004883
      ],
      "type": "VEC2"
    },
    {
      "bufferView": 1,
      "byteOffset": 132608,
      "componentType": 5126,
      "count": 4,
      "max": [
        1.264374017715454,
        2.3781261444091797
      ],
      "min": [
        -0.2643737196922302,
        -2.0313539505004883
      ],
      "type": "VEC2"
    },
    {
      "bufferView": 1,
      "byteOffset": 132640,
      "componentType": 5126,
      "count": 4,
      "max": [
        1.264374017715454,
        2.3781261444091797
      ],
      "min": [
        -0.2643737196922302,
        -2.0313539505004883
      ],
      "type": "VEC2"
    },
    {
      "bufferView": 0,
      "byteOffset": 133248,
      "componentType": 5125,
      "count": 6,
      "type": "SCALAR"
    }
  ],
  "asset": {
    "extras": {
      "author": "Nicholas-3D (https://sketchfab.com/Nicholas01)",
      "license": "CC-BY-4.0 (http://creativecommons.org/licenses/by/4.0/)",
      "source": "https://sketchfab.com/3d-models/warehouse-fbx-model-free-daa7fd3ff88945298d00045ca40a4c03",
      "title": "Warehouse FBX Model Free"
    },
    "generator": "Sketchfab-16.15.0",
    "version": "2.0"
  },
  "bufferViews": [
    {
      "buffer": 0,
      "byteLength": 133272,
      "name": "floatBufferViews",
      "target": 34963
    },
    {
      "buffer": 0,
      "byteLength": 132672,
      "byteOffset": 133272,
      "byteStride": 8,
      "name": "floatBufferViews",
      "target": 34962
    },
    {
      "buffer": 0,
      "byteLength": 397824,
      "byteOffset": 265944,
      "byteStride": 12,
      "name": "floatBufferViews",
      "target": 34962
    },
    {
      "buffer": 0,
      "byteLength": 249600,
      "byteOffset": 663768,
      "byteStride": 16,
      "name": "floatBufferViews",
      "target": 34962
    }
  ],
  "buffers": [
    {
      "byteLength": 913368,
      "uri": "scene.bin"
    }
  ],
  "extensionsUsed": [
    "KHR_materials_emissive_strength",
    "KHR_materials_specular"
  ],
  "images": [
    {
      "uri": "textures/Metal_normal.png"
    },
    {
      "uri": "textures/WetConcrete_baseColor.png"
    },
    {
      "uri": "textures/WetConcrete_metallicRoughness.png"
    },
    {
      "uri": "textures/WetConcrete_normal.png"
    }
  ],
  "materials": [
    {
      "doubleSided": true,
      "name": "Metal",
      "normalTexture": {
        "index": 0
      },
      "pbrMetallicRoughness": {
        "baseColorFactor": [
          0.280204862924867,
          0.280204862924867,
          0.280204862924867,
          1.0
        ]
      }
    },
    {
      "doubleSided": true,
      "emissiveFactor": [
        0.3867828934557934,
        0.7838073560645249,
        1.0
      ],
      "extensions": {
        "KHR_materials_emissive_strength": {
          "emissiveStrength": 10.0
        }
      },
      "name": "Emissive"
    },
    {
      "doubleSided": true,
      "extensions": {
        "KHR_materials_specular": {
          "specularColorFactor": [
            1.0,
            1.0,
            1.0
          ],
          "specularFactor": 1.0
        }
      },
      "name": "WetConcrete",
      "normalTexture": {
        "index": 3
      },
      "pbrMetallicRoughness": {
        "baseColorTexture": {
          "index": 1
        },
        "metallicFactor": 0.646617,
        "metallicRoughnessTexture": {
          "index": 2
        }
      }
    }
  ],
  "meshes": [
    {
      "name": "NurbsPath.005_Metal_0",
      "primitives": [
        {
          "attributes": {
            "NORMAL": 1,
            "POSITION": 0,
            "TANGENT": 2,
            "TEXCOORD_0": 3
          },
          "indices": 4,
          "material": 0,
          "mode": 4
        }
      ]
    },
    {
      "name": "NurbsPath.005_Emissive_0",
      "primitives": [
        {
          "attributes": {
            "NORMAL": 6,
            "POSITION": 5,
            "TEXCOORD_0": 7
          },
          "indices": 8,
          "material": 1,
          "mode": 4
        }
      ]
    },
    {
      "name": "NurbsPath.005_WetConcrete_0",
      "primitives": [
        {
          "attributes": {
            "NORMAL": 10,
            "POSITION": 9,
            "TANGENT": 11,
            "TEXCOORD_0": 12,
            "TEXCOORD_1": 13,
            "TEXCOORD_2": 14
          },
          "indices": 15,
          "material": 2,
          "mode": 4
        }
      ]
    }
  ],
  "nodes": [
    {
      "children": [
        1
      ],
      "matrix": [
        1.0,
        0.0,
        0.0,
        0.0,
        0.0,
        2.220446049250313e-16,
        -1.0,
        0.0,
        0.0,
        1.0,
        2.220446049250313e-16,
        0.0,
        0.0,
        0.0,
        0.0,
        1.0
      ],
      "name": "Sketchfab_model"
    },
    {
      "children": [
        2
      ],
      "matrix": [
        0.009999999776482582,
        0.0,
        0.0,
        0.0,
        0.0,
        0.0,
        0.009999999776482582,
        0.0,
        0.0,
        -0.009999999776482582,
        0.0,
        0.0,
        0.0,
        0.0,
        0.0,
        1.0
      ],
      "name": "a2c893ec5a6a4bbd9f3558cbd5c529ed.fbx"
    },
    {
      "children": [
        3
      ],
      "name": "RootNode"
    },
    {
      "children": [
        4,
        5,
        6
      ],
      "matrix": [
        -99.99999999999885,
        1.2246465878873718e-14,
        -1.5099579909783704e-05,
        0.0,
        -1.509957990978366e-05,
        7.549789993177569e-06,
        99.99999999999856,
        0.0,
        1.1522330358069753e-12,
        99.9999999999997,
        -7.549789970973109e-06,
        0.0,
        0.0,
        0.0,
        0.0,
        1.0
      ],
      "name": "NurbsPath.005"
    },
    {
      "mesh": 0,
      "name": "NurbsPath.005_Metal_0"
    },
    {
      "mesh": 1,
      "name": "NurbsPath.005_Emissive_0"
    },
    {
      "mesh": 2,
      "name": "NurbsPath.005_WetConcrete_0"
    }
  ],
  "samplers": [
    {
      "magFilter": 9729,
      "minFilter": 9987,
      "wrapS": 10497,
      "wrapT": 10497
    }
  ],
  "scene": 0,
  "scenes": [
    {
      "name": "Sketchfab_Scene",
      "nodes": [
        0
      ]
    }
  ],
  "textures": [
    {
      "sampler": 0,
      "source": 0
    },
    {
      "sampler": 0,
      "source": 1
    },
    {
      "sampler": 0,
      "source": 2
    },
    {
      "sampler": 0,
      "source": 3
    }
  ]
}
