{
  "accessors": [
    {
      "bufferView": 2,
      "componentType": 5126,
      "count": 16,
      "max": [
        1.0,
        1.0,
        1.0
      ],
      "min": [
        -1.0,
        -1.0,
        -1.0
      ],
      "type": "VEC3"
    },
    {
      "bufferView": 2,
      "byteOffset": 192,
      "componentType": 5126,
      "count": 16,
      "max": [
        1.0,
        1.0,
        1.0
      ],
      "min": [
        -1.0,
        0.0,
        0.0
      ],
      "type": "VEC3"
    },
    {
      "bufferView": 1,
      "componentType": 5126,
      "count": 16,
      "max": [
        0.875,
        0.75
      ],
      "min": [
        0.375,
        0.0
      ],
      "type": "VEC2"
    },
    {
      "bufferView": 0,
      "componentType": 5125,
      "count": 24,
      "type": "SCALAR"
    },
    {
      "bufferView": 2,
      "byteOffset": 384,
      "componentType": 5126,
      "count": 4,
      "max": [
        1.0,
        1.0,
        0.0
      ],
      "min": [
        -1.0,
        -1.0,
        0.0
      ],
      "type": "VEC3"
    },
    {
      "bufferView": 2,
      "byteOffset": 432,
      "componentType": 5126,
      "count": 4,
      "max": [
        0.0,
        0.0,
        1.0
      ],
      "min": [
        0.0,
        0.0,
        1.0
      ],
      "type": "VEC3"
    },
    {
      "bufferView": 3,
      "componentType": 5126,
      "count": 4,
      "max": [
        1.0,
        0.0,
        0.0,
        1.0
      ],
      "min": [
        1.0,
        0.0,
        0.0,
        1.0
      ],
      "type": "VEC4"
    },
    {
      "bufferView": 1,
      "byteOffset": 128,
      "componentType": 5126,
      "count": 4,
      "max": [
        14.638596534729004,
        14.638596534729004
      ],
      "min": [
        -13.638596534729004,
        -13.638596534729004
      ],
      "type": "VEC2"
    },
    {
      "bufferView": 1,
      "byteOffset": 160,
      "componentType": 5126,
      "count": 4,
      "max": [
        1.0,
        1.0
      ],
      "min": [
        0.0,
        0.0
      ],
      "type": "VEC2"
    },
    {
      "bufferView": 0,
      "byteOffset": 96,
      "componentType": 5125,
      "count": 6,
      "type": "SCALAR"
    },
    {
      "bufferView": 2,
      "byteOffset": 480,
      "componentType": 5126,
      "count": 192,
      "max": [
        1.0,
        573.0,
        6.386000156402588
      ],
      "min": [
        -3.2799999713897705,
        -1.0,
        0.0
      ],
      "type": "VEC3"
    },
    {
      "bufferView": 2,
      "byteOffset": 2784,
      "componentType": 5126,
      "count": 192,
      "max": [
        0.0,
        0.0,
        1.0
      ],
      "min": [
        0.0,
        0.0,
        1.0
      ],
      "type": "VEC3"
    },
    {
      "bufferView": 1,
      "byteOffset": 192,
      "componentType": 5126,
      "count": 192,
      "max": [
        1.0,
        1.0
      ],
      "min": [
        0.0,
        0.0
      ],
      "type": "VEC2"
    },
    {
      "bufferView": 0,
      "byteOffset": 120,
      "componentType": 5125,
      "count": 288,
      "type": "SCALAR"
    },
    {
      "bufferView": 2,
      "byteOffset": 5088,
      "componentType": 5126,
      "count": 144,
      "max": [
        5.992000102996826,
        573.0,
        0.0
      ],
      "min": [
        -1.0,
        -1.0,
        0.0
      ],
      "type": "VEC3"
    },
    {
      "bufferView": 2,
      "byteOffset": 6816,
      "componentType": 5126,
      "count": 144,
      "max": [
        0.0,
        0.0,
        1.0
      ],
      "min": [
        0.0,
        0.0,
        1.0
      ],
      "type": "VEC3"
    },
    {
      "bufferView": 1,
      "byteOffset": 1728,
      "componentType": 5126,
      "count": 144,
      "max": [
        1.0,
        1.0
      ],
      "min": [
        0.0,
        0.0
      ],
      "type": "VEC2"
    },
    {
      "bufferView": 0,
      "byteOffset": 1272,
      "componentType": 5125,
      "count": 216,
      "type": "SCALAR"
    }
  ],
  "asset": {
    "extras": {
      "author": "Velocity Motion (https://sketchfab.com/velocity.motion)",
      "license": "CC-BY-4.0 (http://creativecommons.org/licenses/by/4.0/)",
      "source": "https://sketchfab.com/3d-models/studio-v1-for-car-9c45d19a7d434e2ca1640d6d2146e895",
      "title": "Studio V1 For Car"
    },
    "generator": "Sketchfab-15.61.0",
    "version": "2.0"
  },
  "bufferViews": [
    {
      "buffer": 0,
      "byteLength": 2136,
      "name": "floatBufferViews",
      "target": 34963
    },
    {
      "buffer": 0,
      "byteLength": 2880,
      "byteOffset": 2136,
      "byteStride": 8,
      "name": "floatBufferViews",
      "target": 34962
    },
    {
      "buffer": 0,
      "byteLength": 8544,
      "byteOffset": 5016,
      "byteStride": 12,
      "name": "floatBufferViews",
      "target": 34962
    },
    {
      "buffer": 0,
      "byteLength": 64,
      "byteOffset": 13560,
      "byteStride": 16,
      "name": "floatBufferViews",
      "target": 34962
    }
  ],
  "buffers": [
    {
      "byteLength": 13624,
      "uri": "scene.bin"
    }
  ],
  "extensionsUsed": [
    "KHR_materials_emissive_strength"
  ],
  "images": [
    {
      "uri": "textures/TilesSlateSquare001_2K_baseColor.png"
    },
    {
      "uri": "textures/TilesSlateSquare001_2K_metallicRoughness.png"
    },
    {
      "uri": "textures/TilesSlateSquare001_2K_normal.png"
    }
  ],
  "materials": [
    {
      "doubleSided": true,
      "name": "Material",
      "pbrMetallicRoughness": {
        "baseColorFactor": [
          0.020742511621608114,
          0.019154030799177844,
          0.019154030799177844,
          1.0
        ],
        "metallicFactor": 0.46171569284782576,
        "roughnessFactor": 0.24838170935378087
      }
    },
    {
      "doubleSided": true,
      "name": "TilesSlateSquare001_2K",
      "normalTexture": {
        "index": 2,
        "texCoord": 1
      },
      "pbrMetallicRoughness": {
        "baseColorTexture": {
          "index": 0
        },
        "metallicRoughnessTexture": {
          "index": 1,
          "texCoord": 1
        }
      }
    },
    {
      "doubleSided": true,
      "emissiveFactor": [
        1.0,
        1.0,
        1.0
      ],
      "extensions": {
        "KHR_materials_emissive_strength": {
          "emissiveStrength": 10.0
        }
      },
      "name": "lights",
      "pbrMetallicRoughness": {
        "baseColorFactor": [
          0.8,
          0.8,
          0.8,
          1.0
        ],
        "metallicFactor": 0.0,
        "roughnessFactor": 0.8211145618000169
      }
    }
  ],
  "meshes": [
    {
      "name": "wall_Material_0",
      "primitives": [
        {
          "attributes": {
            "NORMAL": 1,
            "POSITION": 0,
            "TEXCOORD_0": 2
          },
          "indices": 3,
          "material": 0,
          "mode": 4
        }
      ]
    },
    {
      "name": "ground_TilesSlateSquare001_2K_0",
      "primitives": [
        {
          "attributes": {
            "NORMAL": 5,
            "POSITION": 4,
            "TANGENT": 6,
            "TEXCOORD_0": 7,
            "TEXCOORD_1": 8
          },
          "indices": 9,
          "material": 1,
          "mode": 4
        }
      ]
    },
    {
      "name": "light_lights_0",
      "primitives": [
        {
          "attributes": {
            "NORMAL": 11,
            "POSITION": 10,
            "TEXCOORD_0": 12
          },
          "indices": 13,
          "material": 2,
          "mode": 4
        }
      ]
    },
    {
      "name": "light up_lights_0",
      "primitives": [
        {
          "attributes": {
            "NORMAL": 15,
            "POSITION": 14,
            "TEXCOORD_0": 16
          },
          "indices": 17,
          "material": 2,
          "mode": 4
        }
      ]
    }
  ],
  "nodes": [
    {
      "children": [
        1
      ],
      "matrix": [
        1.0,
        0.0,
        0.0,
        0.0,
        0.0,
        2.220446049250313e-16,
        -1.0,
        0.0,
        0.0,
        1.0,
        2.220446049250313e-16,
        0.0,
        0.0,
        0.0,
        0.0,
        1.0
      ],
      "name": "Sketchfab_model"
    },
    {
      "children": [
        2
      ],
      "matrix": [
        0.009999999776482582,
        0.0,
        0.0,
        0.0,
        0.0,
        0.0,
        0.009999999776482582,
        0.0,
        0.0,
        -0.009999999776482582,
        0.0,
        0.0,
        0.0,
        0.0,
        0.0,
        1.0
      ],
      "name": "Studio V1.fbx"
    },
    {
      "children": [
        3,
        5,
        7,
        9,
        11
      ],
      "name": "RootNode"
    },
    {
      "children": [
        4
      ],
      "matrix": [
        320.0,
        0.0,
        0.0,
        0.0,
        -0.0,
        -0.00020365084923978927,
        -1249.9999999999834,
        0.0,
        0.0,
        149.999999999998,
        -2.4438101908774712e-05,
        0.0,
        -49.388511657714844,
        154.99996948242188,
        262.0621337890625,
        1.0
      ],
      "name": "wall"
    },
    {
      "mesh": 0,
      "name": "wall_Material_0"
    },
    {
      "children": [
        6
      ],
      "matrix": [
        1413.8597412109375,
        0.0,
        0.0,
        0.0,
        0.0,
        -0.00023034698960284488,
        -1413.8597412109189,
        0.0,
        0.0,
        1413.8597412109189,
        -0.00023034698960284488,
        0.0,
        0.0,
        1.2955268621444702,
        332.3244934082031,
        1.0
      ],
      "name": "ground"
    },
    {
      "mesh": 1,
      "name": "ground_TilesSlateSquare001_2K_0"
    },
    {
      "children": [
        8
      ],
      "matrix": [
        -3.0597973044166338e-06,
        -69.99999999999994,
        -7.771561172376096e-15,
        0.0,
        -1.7484556047442368e-07,
        7.993605777301127e-15,
        -3.9999999999999964,
        0.0,
        99.99999999999982,
        -4.371139011860592e-06,
        -4.371139006309477e-06,
        0.0,
        -368.20513916015625,
        70.0,
        1372.9390869140625,
        1.0
      ],
      "name": "light"
    },
    {
      "mesh": 2,
      "name": "light_lights_0"
    },
    {
      "children": [
        10
      ],
      "matrix": [
        91.0,
        0.0,
        0.0,
        0.0,
        -0.0,
        -6.516827175673257e-07,
        -3.999999999999947,
        0.0,
        0.0,
        99.99999999999868,
        -1.629206793918314e-05,
        0.0,
        -276.3102722167969,
        304.59576416015625,
        1372.9390869140625,
        1.0
      ],
      "name": "light up"
    },
    {
      "mesh": 3,
      "name": "light up_lights_0"
    },
    {
      "children": [
        12
      ],
      "matrix": [
        -2.7620954877299306,
        -14.607991284341939,
        -98.88870457880618,
        0.0,
        -0.4079147425721313,
        98.92727159259476,
        -14.602294851458632,
        0.0,
        99.96101456512906,
        5.2277526373101235e-05,
        -2.792054280869527,
        0.0,
        -48.536598205566406,
        120.01160430908203,
        1858.18994140625,
        1.0
      ],
      "name": "Camera"
    },
    {
      "name": "Object_12"
    }
  ],
  "samplers": [
    {
      "magFilter": 9729,
      "minFilter": 9987,
      "wrapS": 10497,
      "wrapT": 10497
    }
  ],
  "scene": 0,
  "scenes": [
    {
      "name": "Sketchfab_Scene",
      "nodes": [
        0
      ]
    }
  ],
  "textures": [
    {
      "sampler": 0,
      "source": 0
    },
    {
      "sampler": 0,
      "source": 1
    },
    {
      "sampler": 0,
      "source": 2
    }
  ]
}
