{
  "accessors": [
    {
      "bufferView": 2,
      "componentType": 5126,
      "count": 4490,
      "max": [
        40.609622955322266,
        40.91273498535156,
        7.1311116218566895
      ],
      "min": [
        -43.708213806152344,
        -40.60965347290039,
        -0.01990594156086445
      ],
      "type": "VEC3"
    },
    {
      "bufferView": 2,
      "byteOffset": 53880,
      "componentType": 5126,
      "count": 4490,
      "max": [
        1.0,
        1.0,
        1.0
      ],
      "min": [
        -1.0,
        -1.0,
        -1.0
      ],
      "type": "VEC3"
    },
    {
      "bufferView": 3,
      "componentType": 5126,
      "count": 4490,
      "max": [
        1.0,
        1.0,
        1.0,
        1.0
      ],
      "min": [
        -1.0,
        -1.0,
        -1.0,
        -1.0
      ],
      "type": "VEC4"
    },
    {
      "bufferView": 1,
      "componentType": 5126,
      "count": 4490,
      "max": [
        1.3333333730697632,
        1.000014066696167
      ],
      "min": [
        0.0,
        -1.9181704828952206e-06
      ],
      "type": "VEC2"
    },
    {
      "bufferView": 1,
      "byteOffset": 35920,
      "componentType": 5126,
      "count": 4490,
      "max": [
        0.9972155094146729,
        0.9967921376228333
      ],
      "min": [
        0.002784470794722438,
        0.002784458454698324
      ],
      "type": "VEC2"
    },
    {
      "bufferView": 1,
      "byteOffset": 71840,
      "componentType": 5126,
      "count": 4490,
      "max": [
        0.9995787143707275,
        1.0
      ],
      "min": [
        -5.2088628549329385e-12,
        -3.85186238460733e-09
      ],
      "type": "VEC2"
    },
    {
      "bufferView": 0,
      "componentType": 5125,
      "count": 10239,
      "type": "SCALAR"
    }
  ],
  "asset": {
    "extras": {
      "author": "vslite (https://sketchfab.com/vslite)",
      "license": "CC-BY-4.0 (http://creativecommons.org/licenses/by/4.0/)",
      "source": "https://sketchfab.com/3d-models/brutalist-interior-0eb40f2cb2bf4dfdbaae36095825788a",
      "title": "Brutalist Interior"
    },
    "generator": "Sketchfab-16.12.0",
    "version": "2.0"
  },
  "bufferViews": [
    {
      "buffer": 0,
      "byteLength": 40956,
      "name": "floatBufferViews",
      "target": 34963
    },
    {
      "buffer": 0,
      "byteLength": 107760,
      "byteOffset": 40956,
      "byteStride": 8,
      "name": "floatBufferViews",
      "target": 34962
    },
    {
      "buffer": 0,
      "byteLength": 107760,
      "byteOffset": 148716,
      "byteStride": 12,
      "name": "floatBufferViews",
      "target": 34962
    },
    {
      "buffer": 0,
      "byteLength": 71840,
      "byteOffset": 256476,
      "byteStride": 16,
      "name": "floatBufferViews",
      "target": 34962
    }
  ],
  "buffers": [
    {
      "byteLength": 328316,
      "uri": "scene.bin"
    }
  ],
  "extensionsUsed": [
    "KHR_materials_specular"
  ],
  "images": [
    {
      "uri": "textures/Concrete_Tiles_baseColor.jpeg"
    },
    {
      "uri": "textures/Concrete_Tiles_metallicRoughness.png"
    },
    {
      "uri": "textures/Concrete_Tiles_emissive.png"
    },
    {
      "uri": "textures/Concrete_Tiles_normal.png"
    }
  ],
  "materials": [
    {
      "doubleSided": true,
      "emissiveFactor": [
        1.0,
        1.0,
        1.0
      ],
      "emissiveTexture": {
        "index": 2,
        "texCoord": 1
      },
      "extensions": {
        "KHR_materials_specular": {
          "specularColorFactor": [
            1.0,
            1.0,
            1.0
          ],
          "specularFactor": 0.3711873229972309
        }
      },
      "name": "Concrete_Tiles",
      "normalTexture": {
        "index": 3
      },
      "occlusionTexture": {
        "index": 1,
        "texCoord": 1
      },
      "pbrMetallicRoughness": {
        "baseColorTexture": {
          "index": 0
        },
        "metallicFactor": 0.8755564969255982,
        "metallicRoughnessTexture": {
          "index": 1
        }
      }
    }
  ],
  "meshes": [
    {
      "name": "Plane.044_Concrete Tiles_0",
      "primitives": [
        {
          "attributes": {
            "NORMAL": 1,
            "POSITION": 0,
            "TANGENT": 2,
            "TEXCOORD_0": 3,
            "TEXCOORD_1": 4,
            "TEXCOORD_2": 5
          },
          "indices": 6,
          "material": 0,
          "mode": 4
        }
      ]
    }
  ],
  "nodes": [
    {
      "children": [
        1
      ],
      "matrix": [
        1.0,
        0.0,
        0.0,
        0.0,
        0.0,
        2.220446049250313e-16,
        -1.0,
        0.0,
        0.0,
        1.0,
        2.220446049250313e-16,
        0.0,
        0.0,
        0.0,
        0.0,
        1.0
      ],
      "name": "Sketchfab_model"
    },
    {
      "children": [
        2
      ],
      "matrix": [
        0.009999999776482582,
        0.0,
        0.0,
        0.0,
        0.0,
        0.0,
        0.009999999776482582,
        0.0,
        0.0,
        -0.009999999776482582,
        0.0,
        0.0,
        0.0,
        0.0,
        0.0,
        1.0
      ],
      "name": "afa5d0dcf02947bfab52e4254cae824e.fbx"
    },
    {
      "children": [
        3
      ],
      "name": "RootNode"
    },
    {
      "children": [
        4
      ],
      "matrix": [
        2.167484804918535e-05,
        5.5558724836740365e-15,
        50.042850494380076,
        0.0,
        50.042850494372445,
        2.7640420714828663e-05,
        -2.1674848057519157e-05,
        0.0,
        -2.7640420714828663e-05,
        50.042850494377134,
        1.19617934573502e-11,
        0.0,
        -7.996940612792969,
        0.9941264986991882,
        119.39678192138672,
        1.0
      ],
      "name": "Plane.044"
    },
    {
      "mesh": 0,
      "name": "Plane.044_Concrete Tiles_0"
    }
  ],
  "samplers": [
    {
      "magFilter": 9729,
      "minFilter": 9987,
      "wrapS": 10497,
      "wrapT": 10497
    }
  ],
  "scene": 0,
  "scenes": [
    {
      "name": "Sketchfab_Scene",
      "nodes": [
        0
      ]
    }
  ],
  "textures": [
    {
      "sampler": 0,
      "source": 0
    },
    {
      "sampler": 0,
      "source": 1
    },
    {
      "sampler": 0,
      "source": 2
    },
    {
      "sampler": 0,
      "source": 3
    }
  ]
}
